<!DOCTYPE svg PUBLIC "-//W3C//DTD SVG 1.1//EN"
	"http://www.w3.org/Graphics/SVG/1.1/DTD/svg11.dtd">
<svg id="Layer1" version="1.1" xmlns="http://www.w3.org/2000/svg" xmlns:xlink="http://www.w3.org/1999/xlink" x="opx" y="0px" width="250px" height="200px" enable-background="new 0 0 250 200" xml:space="preserve">
<g xmlns="http://www.w3.org/2000/svg" >
	<circle fill="#DE5833" cx="127.332" cy="78.966" r="51.15"/>
	<g>
		<g>
			<g>
				<g>
					<g>
						<g>
							<g>
								<g>
									<g>
										<g>
											<g>
												<g>
													<defs>
														<path id="SVGID_1_" d="M178.684,78.824c0,28.316-23.035,51.354-51.354,51.354c-28.313,0-51.348-23.039-51.348-51.354                c0-28.313,23.036-51.349,51.348-51.349C155.648,27.475,178.684,50.511,178.684,78.824z"/>
													</defs>
													<clipPath id="SVGID_2_">
														<use xlink:href="#SVGID_1_" xmlns:xlink="http://www.w3.org/1999/xlink" overflow="visible"/>
													</clipPath>
													<g clip-path="url(#SVGID_2_)">
														<path fill="#D5D7D8" d="M148.293,155.158c-1.801-8.285-12.262-27.039-16.23-34.969                c-3.965-7.932-7.938-19.11-6.129-26.322c0.328-1.312-3.436-11.308-2.354-12.015                c8.416-5.489,10.632,0.599,14.002-1.862c1.734-1.273,4.09,1.047,4.689-1.06c2.158-7.567-3.006-20.76-8.771-26.526                c-1.885-1.879-4.771-3.06-8.03-3.687c-1.254-1.713-3.275-3.36-6.138-4.879c-3.188-1.697-10.121-3.938-13.717-4.535                c-2.492-0.41-3.055,0.287-4.119,0.461c0.992,0.088,5.699,2.414,6.615,2.549c-0.916,0.619-3.607-0.028-5.324,0.742                c-0.865,0.392-1.512,1.877-1.506,2.58c4.91-0.496,12.574-0.016,17.1,2c-3.602,0.41-9.08,0.867-11.436,2.105                c-6.848,3.608-9.873,12.035-8.07,22.133c1.804,10.075,9.738,46.85,12.262,59.129                c2.525,12.264-5.408,20.189-10.455,22.354l5.408,0.363l-1.801,3.967c6.484,0.719,13.695-1.439,13.695-1.439                c-1.438,3.965-11.176,5.412-11.176,5.412s4.691,1.438,12.258-1.447c7.578-2.883,12.263-4.688,12.263-4.688                l3.604,9.373l6.854-6.847l2.885,7.211C144.686,165.26,150.096,163.453,148.293,155.158z"/>
														<path fill="#FFFFFF" d="M150.471,153.477c-1.795-8.289-12.256-27.043-16.228-34.979                c-3.97-7.936-7.935-19.112-6.13-26.321c0.335-1.309,0.341-6.668,1.429-7.379c8.411-5.494,7.812-0.184,11.187-2.645                c1.74-1.271,3.133-2.806,3.738-4.912c2.164-7.572-3.006-20.76-8.773-26.529c-1.879-1.879-4.768-3.062-8.023-3.686                c-1.252-1.718-3.271-3.361-6.13-4.882c-5.391-2.862-12.074-4.006-18.266-2.883c0.99,0.09,3.256,2.138,4.168,2.273                c-1.381,0.936-5.053,0.815-5.029,2.896c4.916-0.492,10.303,0.285,14.834,2.297c-3.602,0.41-6.955,1.3-9.311,2.543                c-6.854,3.603-8.656,10.812-6.854,20.914c1.807,10.097,9.742,46.873,12.256,59.126                c2.527,12.26-5.402,20.188-10.449,22.354l5.408,0.359l-1.801,3.973c6.484,0.721,13.695-1.439,13.695-1.439                c-1.438,3.974-11.176,5.406-11.176,5.406s4.686,1.439,12.258-1.445c7.581-2.883,12.269-4.688,12.269-4.688                l3.604,9.373L144,156.35l2.891,7.215C146.875,163.572,152.279,161.768,150.471,153.477z"/>
														<path fill="#2D4F8E" d="M109.021,70.691c0-2.093,1.693-3.787,3.789-3.787c2.09,0,3.785,1.694,3.785,3.787                c0,2.094-1.695,3.786-3.785,3.786C110.714,74.478,109.021,72.785,109.021,70.691z"/>
														<path fill="#FFFFFF" d="M113.507,69.429c0-0.545,0.441-0.983,0.98-0.983c0.543,0,0.984,0.438,0.984,0.983                c0,0.543-0.441,0.984-0.984,0.984C113.949,70.414,113.507,69.972,113.507,69.429z"/>
														<path fill="#2D4F8E" d="M134.867,68.445c0-1.793,1.461-3.25,3.252-3.25c1.801,0,3.256,1.457,3.256,3.25                c0,1.801-1.455,3.258-3.256,3.258C136.328,71.703,134.867,70.246,134.867,68.445z"/>
														<path fill="#FFFFFF" d="M138.725,67.363c0-0.463,0.379-0.843,0.838-0.843c0.479,0,0.846,0.38,0.846,0.843                c0,0.469-0.367,0.842-0.846,0.842C139.104,68.205,138.725,67.832,138.725,67.363z"/>

															<linearGradient id="SVGID_3_" gradientUnits="userSpaceOnUse" x1="1893.3184" y1="-2381.9795" x2="1901.8867" y2="-2381.9795" gradientTransform="matrix(1 0 0 -1 -1788 -2321)">
															<stop offset="0.0056" style="stop-color:#6176B9"/>
															<stop offset="0.691" style="stop-color:#394A9F"/>
														</linearGradient>
														<path fill="url(#SVGID_3_)" d="M113.886,59.718c0,0-2.854-1.291-5.629,0.453c-2.77,1.742-2.668,3.523-2.668,3.523                s-1.473-3.283,2.453-4.892C111.972,57.193,113.886,59.718,113.886,59.718z"/>

															<linearGradient id="SVGID_4_" gradientUnits="userSpaceOnUse" x1="1920.2734" y1="-2379.3711" x2="1928.0781" y2="-2379.3711" gradientTransform="matrix(1 0 0 -1 -1788 -2321)">
															<stop offset="0.0056" style="stop-color:#6176B9"/>
															<stop offset="0.691" style="stop-color:#394A9F"/>
														</linearGradient>
														<path fill="url(#SVGID_4_)" d="M140.078,59.458c0,0-2.051-1.172-3.643-1.152c-3.271,0.043-4.162,1.488-4.162,1.488                s0.549-3.445,4.732-2.754C139.273,57.417,140.078,59.458,140.078,59.458z"/>
													</g>
												</g>
											</g>
										</g>
									</g>
								</g>
							</g>
						</g>
					</g>
				</g>
			</g>
			<path fill="#FDD20A" d="M124.4,85.295c0.379-2.291,6.299-6.625,10.491-6.887c4.201-0.265,5.51-0.205,9.01-1.043     c3.51-0.838,12.535-3.088,15.033-4.242c2.504-1.156,13.104,0.572,5.631,4.738c-3.232,1.809-11.943,5.131-18.172,6.987     c-6.219,1.861-9.99-1.776-12.06,1.281c-1.646,2.432-0.334,5.762,7.099,6.453c10.037,0.93,19.66-4.521,20.719-1.625     c1.064,2.895-8.625,6.508-14.525,6.623c-5.893,0.111-17.771-3.896-19.555-5.137C126.285,91.205,123.906,88.313,124.4,85.295z"/>
		</g>
		<g>
			<path fill="#65BC46" d="M128.943,115.592c0,0-14.102-7.521-14.332-4.47c-0.238,3.056,0,15.509,1.643,16.451     c1.646,0.938,13.396-6.108,13.396-6.108L128.943,115.592z"/>
			<path fill="#65BC46" d="M134.346,115.118c0,0,9.635-7.285,11.754-6.815c2.111,0.479,2.582,15.51,0.701,16.229     c-1.881,0.69-12.908-3.813-12.908-3.813L134.346,115.118z"/>
			<path fill="#43A244" d="M125.529,116.389c0,4.932-0.709,7.049,1.41,7.519c2.109,0.473,6.104,0,7.518-0.938     c1.41-0.938,0.232-7.279-0.232-8.465C133.748,113.331,125.529,114.273,125.529,116.389z"/>
			<path fill="#65BC46" d="M126.426,115.292c0,4.933-0.707,7.05,1.409,7.519c2.106,0.479,6.104,0,7.519-0.938     c1.41-0.941,0.231-7.279-0.236-8.466C134.645,112.234,126.426,113.18,126.426,115.292z"/>
		</g>
	</g>
	<circle fill="none" stroke="#DE5833" stroke-width="5" stroke-miterlimit="10" cx="127.331" cy="78.965" r="57.5"/>
</g>
</svg>
